<mxfile host="app.diagrams.net" modified="2024-03-14T11:29:47.945Z" agent="Mozilla/5.0 (Macintosh; Intel Mac OS X 10_15_7) AppleWebKit/537.36 (KHTML, like Gecko) Chrome/117.0.0.0 Safari/537.36" version="24.0.6" etag="Z8y78ZUZnjBUQd0CdzIB" type="github">
  <diagram name="Page-1" id="Rx_YLtBI61bsMLxiEJsA">
    <mxGraphModel>
      <root>
        <mxCell id="0" />
        <mxCell id="1" parent="0" />
      </root>
    </mxGraphModel>
  </diagram>
</mxfile>
